# xmcd
#
# Track frame offsets:
#	182
#	15535
#	28655
#	46702
#	61805
#	75912
#	93787
#	110077
#	127667
#	142950
#
# Disc length: 2139 seconds
#
# Revision: 3958490197
# Processed by: cddbd v1.5.2PL0 Copyright (c) Steve Scherf et al.
# Submitted via: EZCDAudioConverter 9.0.6.1
#
DISCID=6808590a
DTITLE=Bryan White
DYEAR=1994
DGENRE=Country
TTITLE0=Eugene You Genius
TTITLE1=You Know How I Feel
TTITLE2=This Town
TTITLE3=Someone Else's Star
TTITLE4=Look At Me Now
TTITLE5=Rebecca Lynn
TTITLE6=Me And The Moon
TTITLE7=Nothing Less Than Love
TTITLE8=Going, Going, Gone
TTITLE9=Helpless Heart
EXTD=
EXTT0=
EXTT1=
EXTT2=
EXTT3=
EXTT4=
EXTT5=
EXTT6=
EXTT7=
EXTT8=
EXTT9=
PLAYORDER=
